<svg width="756" height="152" viewBox="0 0 756 152" fill="none" xmlns="http://www.w3.org/2000/svg">
<path d="M378.004 1.53711C482.317 1.53711 576.712 9.99886 644.991 23.6611C679.143 30.4948 706.681 38.614 725.645 47.585C735.13 52.0723 742.388 56.7349 747.253 61.4922C752.115 66.247 754.471 70.9738 754.471 75.6367C754.471 80.2995 752.115 85.0265 747.253 89.7812C742.388 94.5385 735.13 99.2012 725.645 103.688C706.681 112.659 679.143 120.779 644.991 127.612C576.712 141.275 482.317 149.736 378.004 149.736C273.691 149.736 179.296 141.275 111.017 127.612C76.8644 120.779 49.3254 112.659 30.3623 103.688C20.877 99.2012 13.619 94.5385 8.75391 89.7812C3.89145 85.0265 1.53718 80.2995 1.53711 75.6367C1.53711 70.9739 3.89151 66.2469 8.75391 61.4922C13.619 56.7349 20.877 52.0723 30.3623 47.585C49.3254 38.6139 76.8644 30.4948 111.017 23.6611C179.296 9.99887 273.691 1.53711 378.004 1.53711Z" stroke="black" stroke-width="3.07426"/>
</svg>
