<svg width="123" height="96" viewBox="0 0 123 96" fill="none" xmlns="http://www.w3.org/2000/svg">
<path d="M111.769 27.252L121.227 63.773L118.979 66.2409L115.48 66.6288L112.97 63.3201L106.923 38.5634L103.727 35.4894L101.042 35.3421L99.8286 37.0148L99.6257 40.714L103.531 55.4219L106.085 66.1134L105.249 69.0823L101.799 70.6322L98.0912 68.6896L90.5218 41.0263L88.3799 39.1696L86.2041 39.9778L85.1572 42.7032L90.6649 69.0939L90.4557 72.9088L87.8936 74.6234L83.4705 73.4532L78.1017 50.6645L74.1011 43.836L71.6722 43.123L69.5511 44.9778L72.0257 55.0852L76.8208 74.0161L75.4883 78.2331L72.1861 78.7477L68.7529 75.8925L61.5801 49.1786L58.3809 48.1914L56.1797 49.4621L55.9958 52.8145L61.7065 75.506L61.4656 79.8989L59.7349 82.8186L55.5965 82.5916L51.7672 72.6418L46.1533 52.2747L42.6186 51.2691L40.6072 55.217L47.1659 80.854L45.8613 86.2318L43.3436 87.1373L39.6129 83.5701L33.0287 58.3958L29.6819 56.0092L27.2213 55.8742L26.4148 60.352L32.5516 85.5018L31.2913 90.0706L28.3009 91.4139L24.8866 88.212L17.5028 61.2545L14.7597 58.0894L11.5369 61.623L17.507 85.7201L17.9453 94.0925L12.7559 94.6195L6.67743 78.6331C-1.32779 63.0047 -3.19301 35.6542 13.7045 34.3781C27.2224 33.3571 28.7454 26.0431 27.8172 22.5137C30.6628 11.5386 44.3657 5.10138 50.8614 3.25464C56.4962 0.742285 68.3176 -2.07231 70.5251 6.76816C72.7326 15.6086 77.0236 16.7116 78.8932 16.158C94.0687 8.25695 107.134 20.2619 111.769 27.252Z" stroke="black" stroke-width="1.5"/>
</svg>
