<svg width="131" height="114" viewBox="0 0 131 114" fill="none" xmlns="http://www.w3.org/2000/svg">
<path d="M9.08105 74.4879L6.73914 67.5326L7.26111 64.6288L5.17249 61.2318L7.7251 59.722L9.96838 57.3818L5.94592 56.2495L8.2666 52.3996L10.5873 51.9466L14.4662 47.5073V44.6113L2.7937 35.0473L1.21094 31.869H6.73914L12.0922 27.6786L6.73914 26.0218L1.21094 23.0133L2.7937 19.5128L6.73914 11.9833L43.153 11.018L68.4764 0.785522L118.464 12.8467L129.52 23.0133L126.543 26.0218L128.031 29.7565L119.952 35.0473L126.543 41.6868L127.287 46.2514L120.696 50.9197H123.779L124.736 52.6833L117.72 59.1153H120.696L122.823 61.9163L115.062 68.6595L117.063 72.0331L65.8202 112.618L50.9167 105.173L26.0856 81.8523L9.08105 74.4879Z" stroke="black" stroke-width="1.5"/>
</svg>
