<svg width="132" height="161" viewBox="0 0 132 161" fill="none" xmlns="http://www.w3.org/2000/svg">
<path d="M71.0377 119.296L62.5988 105.236L54.0111 97.5661L45.3799 92.6725L45.7274 84.4597L34.7944 78.261L35.399 70.936L25.3803 64.019L25.1479 56.3821L19.5532 55.5209L14.0232 50.0747L15.9484 42.2087L10.3861 39.055L6.11978 31.8271L9.09514 22.3833L1.31862 1.40199L17.0545 8.34495L25.1844 12.9544L25.729 17.3582L25.9428 20.5575L30.5462 23.1675L36.0355 21.0855L42.6385 22.8504L43.1833 27.2543L40.483 32.0168L44.1274 34.0831L47.388 35.9318L51.2242 38.1067L53.334 39.303L50.4687 44.3568L52.6068 49.5266L57.9491 48.598L61.7852 50.773L62.3889 55.0728L60.0542 59.1907L61.9353 63.4728L69.1918 61.4032L73.2196 63.6869L70.613 73.2019L75.0246 75.7032L82.5577 77.1439L85.1832 90.4204L97.0172 100.828C100.997 99.9924 111.137 98.8819 119.862 101.124C128.586 103.367 130.525 112.015 130.404 116.059C117.071 130.164 88.0492 158.546 78.6268 159.238C69.2043 159.929 63.8189 151.403 62.3039 147.054L71.0377 119.296Z" stroke="black" stroke-width="1.5"/>
</svg>
