<svg width="403" height="287" viewBox="0 0 403 287" fill="none" xmlns="http://www.w3.org/2000/svg">
<path d="M46.6751 128.905L43.7175 122.245L40.7851 123.553L36.7402 129.679L16.0484 131.688C14.056 132.035 8.64244 126.884 2.9278 103.504C-2.78685 80.123 4.08823 59.0928 8.24007 51.5002L33.2891 47.1372L39.7418 55.9872L42.7048 55.4711L44.8988 49.7782L52.2524 49.5337L59.7448 43.5656L63.326 44.4485L53.3068 55.5872C63.5105 62.2546 84.7256 68.5032 87.9559 40.1586C91.1862 11.8139 140.927 2.08763 165.393 0.767515L177.521 13.457L187.537 15.6976L193.159 31.2281L229.039 31.241L269.024 44.7713C327.399 51.6828 328.87 68.5056 341.884 77.9096C352.295 85.4327 340.259 114.913 332.94 128.712L342.392 146.137L347.522 155.492L367.517 163.11C374.768 166.781 391.17 177.663 398.771 191.825C406.371 205.986 399.2 226.667 394.664 235.237L358.993 241.45C353.146 253.096 339.866 276.663 333.525 277.767C327.184 278.872 315.943 271.721 311.115 268.007C306.002 273.263 294.323 284.14 288.512 285.608C282.7 287.075 273.038 279.384 268.933 275.355C255.766 281.823 228.336 291.136 223.945 276.643C219.554 262.151 228.358 226.061 233.309 209.827L191.297 211.452L176.183 195.013L180.773 169.449L161.247 161.179L142.28 164.483L129.048 160.525L117.381 158.857L99.2802 138.668L84.5195 129.284L81.0907 122.911L74.4741 121.512L59.0776 120.366L59.5611 130.647L56.6636 126.209L46.6751 128.905Z" stroke="black" stroke-width="1.5"/>
</svg>
