<svg width="201" height="144" viewBox="0 0 201 144" fill="none" xmlns="http://www.w3.org/2000/svg">
<path d="M121.039 93.7361L107.813 78.7222L121.039 75.0346C137.864 65.3764 168.814 44.2163 158.018 36.841C147.221 29.4657 111.549 39.9141 95.0632 46.0602C81.3963 53.4013 51.0524 73.8462 39.0123 96.897C26.9721 119.948 84.5415 113.35 114.831 107.17L138.314 133.247C107.889 140.183 40.8437 149.894 16.061 133.247C-8.72171 116.6 2.05586 84.517 10.5425 70.5567C29.7316 47.0591 79.7749 0.202233 126.437 0.754845C173.1 1.30746 191.946 18.8965 195.536 27.622C212.595 50.8014 168.814 87.151 144.792 102.428H136.424L124.818 100.585L121.039 93.7361Z" stroke="black" stroke-width="1.5"/>
</svg>
