<svg width="164" height="154" viewBox="0 0 164 154" fill="none" xmlns="http://www.w3.org/2000/svg">
<path d="M42.561 142.027L38.7986 139.212L44.2734 133.705L33.4153 134.748L27.7733 131.008L35.4379 127.788H27.7733L18.8313 121.451L26.0701 119.373L18.8313 118.126L12.7634 111.686L19.7894 109.4L12.7634 108.361L4.99243 99.7392L14.4668 99.012L7.76025 96.6227L2.43762 89.143L11.699 88.4159L7.76025 86.442L1.79895 77.4042L7.76025 79.2741L9.4635 77.4042L3.07629 74.3916L0.734375 62.8606L4.99243 67.9509H10.3151L9.4635 65.2498L6.90857 62.8606L4.03442 52.1606L8.71826 56.7315L11.699 55.7965L9.4635 52.1606V42.1878L26.9216 54.1343V50.4984L14.4668 41.4606V32.8383L23.9409 40.3179L20.4281 32.8383L22.1312 23.6965L28.5184 30.6567V20.4761L30.9669 15.6975L35.0121 23.6965L37.4604 15.6975L43.6348 9.46448L46.0831 16.4247L47.5734 10.5033L53.7487 4.58197L54.6004 12.1655L58.3256 5.72467L67.4805 1.25769L66.7354 9.46448L71.2064 2.91983L77.9129 1.25769L75.571 8.21786H77.9129L85.8968 1.25769L91.5388 1.77707L85.8968 7.69843H87.8129L102.503 2.81592L98.7776 10.3994L104.951 7.69843H114.958L103.035 21.2033L105.484 23.3849L110.487 15.282L115.81 11.3344L124.858 12.7888L122.303 15.282L119.748 19.5412L131.352 17.5674L134.652 20.4761L128.051 24.0081L138.058 25.047L144.339 29.9295H136.674V32.6305L149.957 35.6431V39.5907L144.339 38.9674V42.0839H149.957L155.41 47.0703L155.942 50.3946L149.957 49.7712V51.8489L155.942 52.4722L159.349 57.147V60.9906L155.41 59.744L153.387 60.9906L162.542 67.3276L161.584 72.5218L155.942 69.7168V72.5218L161.584 75.6382L162.542 83.5333L158.71 80.6246L155.41 82.3907L160.945 86.9615V95.5838L158.178 92.3634L154.014 91.2207L152.536 92.3634L157.113 97.5576L158.178 101.817L155.942 105.972L150.726 101.817L141.032 94.0255L138.597 95.5838L142.438 99.5313L149.957 103.328L154.014 112.091L151.309 117.316L148.658 112.46L146.278 111.14L145.954 114.149L146.873 121.064L146.278 125.382L143.628 127.768L142.438 125.762L141.032 121.592L139.355 121.064V127.768L138.597 133.705L133.992 135.051V130.4L131.483 125.382L130.104 128.809V137.132L127.344 141.415L123.456 140.069V133.705L120.572 135.051L119.945 142.762L115.931 145.944L112.921 147.29L112.169 139.212L109.911 140.069L108.155 146.556L104.894 150.105L101.007 151.819L102.512 143.496H98.2476L95.1122 150.105L89.2173 152.553L88.465 150.105L90.848 144.72H87.587L81.9432 152.553H76.4247V148.759L79.3094 144.72H75.4213L71.5334 150.105H62.8795L62.2524 148.759L67.0184 142.762L64.8862 142.027L59.6187 145.944H50.3374V144.72L55.2294 140.069L58.6154 133.705L62.8795 130.4L62.2524 126.361H58.6154L57.9883 130.4L51.7168 140.069L42.561 142.027Z" stroke="black" stroke-width="1.5"/>
</svg>
