<svg width="333" height="380" viewBox="0 0 333 380" fill="none" xmlns="http://www.w3.org/2000/svg">
<path d="M34.4341 67.4218L29.746 81.7187H36.1796L54.4688 74.882L80.5171 81.7187L133.446 102.465L152.012 90.5827L170.855 76.2341H194.133L199.398 86.2398L237.362 136.047L287.242 194.139L292.507 215.232L326.314 257.418L332.134 288.246L304.422 323.672L227.386 363.965L175.566 379.108L154.783 377.486L147.024 363.965L132.337 346.928L117.373 326.105L115.156 317.993L113.216 313.936L106.812 301.767V292.573L100.746 288.516V283.108H106.812V272.503L111.281 263.508H94.2428L75.2496 257.784H55.1397L43.0494 245.287C34.6348 197.604 78.3369 148.208 101.24 129.47L67.5438 136.047H46.4474L20.6628 124.323L1.03125 95.4436L7.77051 90.5827V80.0031L18.0258 57.7V47.6922L20.6628 43.1172L22.714 34.5391L38.5363 8.51892L50.5494 0.798706L58.4605 2.51428V17.097L46.4474 41.6875L34.4341 67.4218Z" stroke="black" stroke-width="1.5"/>
</svg>
