<svg width="411" height="228" viewBox="0 0 411 228" fill="none" xmlns="http://www.w3.org/2000/svg">
<path d="M400.223 121.306L392.743 123.561C392.743 136.228 393.021 162.408 394.13 165.79C395.239 169.172 391.505 174.415 389.5 176.613L371.981 179.723L344.413 202.783H294.527L211.166 179.723C189.505 172.037 142.639 163.981 128.461 193.249C114.283 222.518 80.9819 227.601 66.1038 226.484C62.603 227.124 49.9566 223.281 27.3768 202.783C4.79705 182.286 0.46488 145.561 1.12127 129.76C-0.191511 124.445 1.25258 105.09 17.531 70.1895C33.8095 35.2894 141.386 46.7826 193.14 56.8916L227.518 28.7772C245.917 0.804501 294.902 -0.991032 317.094 1.60778L338.883 11.5305L348.325 8.22296H359.219L377.862 46.7288L384.603 81.6946L397.803 91.034L405.724 100.373L409.244 109.927L407.374 118.622L400.223 121.306Z" stroke="black" stroke-width="1.5"/>
</svg>
