<svg width="200" height="164" viewBox="0 0 200 164" fill="none" xmlns="http://www.w3.org/2000/svg">
<path d="M148.551 140.591L127.927 120.314L126.531 122.512L117.867 122.865L110.986 130.968L106.383 128.046L98.7407 136.174L94.138 133.253L87.0094 140.18L79.272 139.85L75.3571 146.017L69.6563 144.435L63.8733 151.198L57.4197 150.41L55.0017 154.22L45.2677 156.185L36.7002 162.708L31.7434 159.562L21.1289 158.678L17.6002 150.585L6.96975 139.511L0.814204 118.299L10.371 103.242L14.6024 104.401L20.1292 95.6937L26.1481 99.514L32.1354 90.0809L39.8901 91.9492L44.1504 85.2372L50.1841 87.7366L53.7273 82.1543L57.6261 80.0482L64.0437 82.8491L64.578 76.5716L69.3402 74.5045L74.12 77.5384L79.7619 68.6495L86.2626 70.537L91.9248 61.6163L99.2133 66.2424L108.652 56.3236C110.146 30.0432 121.058 -16.5402 152.747 7.36989C184.437 31.28 196.918 92.5704 199.197 120.227L148.551 140.591Z" stroke="black" stroke-width="1.5"/>
</svg>
