<svg width="189" height="155" viewBox="0 0 189 155" fill="none" xmlns="http://www.w3.org/2000/svg">
<path d="M26.8815 10.3316L63.7382 33.7596C70.9788 26.1362 89.4883 12.0568 105.601 16.7274C121.714 21.398 122.298 46.431 120.576 58.3637L154.657 92.0723C161.114 84.4741 176.237 73.8258 185.074 92.0182C193.912 110.211 177.205 133.889 167.747 143.454C161.686 148.193 147.316 156.641 138.33 152.518C129.344 148.395 129.733 131.401 131.05 123.419L92.2286 98.7941C70.9156 105.858 59.5791 104.555 56.575 103.021C44.7559 101.534 43.7574 77.8416 44.7356 66.1814L54.029 45.0094L15.2893 15.5277L1.56101 1.69497L7.25526 0.778151L26.8815 10.3316Z" stroke="black" stroke-width="1.5"/>
</svg>
