<svg width="136" height="143" viewBox="0 0 136 143" fill="none" xmlns="http://www.w3.org/2000/svg">
<path d="M84.5405 107.812L55.5844 47.5453L6.11133 68.3783L0.75 66.096V59.3692L49.3844 37.1287L47.0868 30.0331L51.4907 27.0435V23.4932H45.5551L41.3425 13.0294L63.3622 2.75245L70.4467 9.8529L67.9575 13.0294L66.4257 16.9533H75.042L78.8716 23.4932L129.421 0.883911L134.399 5.36841L133.25 9.8529L81.7437 33.2096L110.307 98.4217L123.893 117.481L126.538 133.176L113.529 142.145H102.614L93.6151 134.671L90.9344 125.515L86.9135 119.91L83.2754 112.809L85.9562 111.501L86.9135 109.072L84.5405 107.812Z" stroke="black" stroke-width="1.5"/>
</svg>
