<svg width="547" height="267" viewBox="0 0 547 267" fill="none" xmlns="http://www.w3.org/2000/svg">
<path d="M188.808 156.296L173.074 154.424C136.243 198.834 88.089 217.994 77.4465 215.86C66.8041 213.725 23.011 205.548 18.5823 192.583C15.0392 182.21 20.2558 104.396 5.09064 89.9968L1.06445 80.8511L12.7403 78.5809C10.9956 73.3422 12.4181 63.1006 32.0657 64.0436C51.7133 64.9865 69.8752 86.187 76.5002 96.6693L91.9193 89.9968L95.7973 80.8511H100.282V76.4296H127.212C123.51 74.0211 134.628 59.6384 140.649 52.7481L174.751 92.5266L185.388 126.326L188.808 127.612L193.824 122.209L195.933 108.06L209.905 86.7069L220.187 50.1755L218.869 47.8601L203.315 52.7481H163.771L150.853 50.1755L155.071 42.9721L181.697 38.8559L262.184 15.0091L325.07 2.62782C341.839 -6.84655 382.807 21.8278 401.194 37.3492L453.048 33.8501H502.418L510.968 28.467L534.413 31.6969C554.492 49.3536 542.779 74.5828 534.413 84.9902L432.086 92.5266L405.056 100.871L385.197 124.018L332.793 135.054C290.428 150.988 280.756 193.371 281.215 212.571L263.563 235.45H255.565L240.947 225.491H227.156C202.002 253.888 181.739 264.059 174.751 265.595H136.965L120.438 254.113L114.645 252.597L112.442 243.552L117.814 231.194L149.665 203.482L143.909 200.111V195.243L156.189 185.881L188.808 156.296Z" stroke="black" stroke-width="1.5"/>
</svg>
