<svg width="219" height="191" viewBox="0 0 219 191" fill="none" xmlns="http://www.w3.org/2000/svg">
<path d="M130.884 189.704L108.799 187.211L90.3102 156.311L20.2494 75.1208L13.9905 56.8802C4.8108 47.3791 1.35687 35.9552 0.777344 31.4308C12.8315 12.0893 43.268 -17.9749 68.5818 16.5005C93.8955 50.9759 111.83 61.2483 117.632 62.0751L125.098 76.1374L134.473 80.7119C137.251 73.483 145.063 58.0427 154.091 54.1121C163.119 50.1814 189.914 60.6067 202.183 66.3107L207.218 75.1208L218.156 82.745L216.072 92.4026L208.287 117.718C202.042 127.753 190.04 150.834 191.999 162.876C193.957 174.918 173.653 183.147 163.257 185.757L147.01 183.887L130.884 189.704Z" stroke="black" stroke-width="1.5"/>
</svg>
