<svg width="291" height="222" viewBox="0 0 291 222" fill="none" xmlns="http://www.w3.org/2000/svg">
<path d="M262.145 182.993L230.069 220.503L218.304 216.572C216.782 202.388 189.786 192.965 176.478 190.027C171.614 192.027 152.533 194.488 115.127 188.32C77.7215 182.153 75.5414 142.544 79.127 123.51L52.1496 115.75L51.66 108.284L46.3766 105.059L50.2638 93.4234L32.9727 87.6469L28.5055 91.9959L13.0096 86.8192L9.02982 95.2947L0.894437 92.5769C11.8804 48.3482 36.3395 12.9737 47.1957 0.814962L55.7072 2.40669L34.2003 39.7153L30.5184 58.9005L33.3624 57.5394L39.3439 61.8488L38.5335 64.2744L55.9388 70.089L62.2452 57.5585L67.9675 59.4702L70.5142 51.8467L99.1659 57.1994L129.432 22.3881L169.532 61.5487L228.799 55.5837L289.345 101.575L262.145 182.993Z" stroke="black" stroke-width="1.5"/>
</svg>
