<svg width="441" height="150" viewBox="0 0 441 150" fill="none" xmlns="http://www.w3.org/2000/svg">
<path d="M214.915 0.690674V63.8435L147.62 0.690674L139.806 8.25408L197.123 60.9011L78.3464 13.3173L74.1225 22.3187L168.712 60.2931L27.7847 32.1639L24.7022 42.5717L147.62 66.7628L0.5 56.0737V66.7628L138.051 74.9203L0.5 82.2339V92.3604L139.806 84.1394L21.5348 107.583L24.7022 118.143L170.853 89.2082L74.1225 127.013L78.3464 136.728L199.575 87.3074L139.806 141.375L147.62 148.556L214.915 85.1954V148.556H225.987V85.1954L293.241 148.556L300.951 141.375L240.548 87.3074L361.566 137.784L366.635 127.435L269.694 89.2082L412.715 118.354L414.577 107.371L293.241 84.1394L440.132 93.8546V82.8722L303.908 74.4242L440.132 67.877V57.7393L294.826 65.5538L414.577 43.3777L412.715 33.9906L272.073 59.6283L365.412 23.2078L361.569 13.8739L243.534 60.9011L299.543 10.0329L293.241 3.15118L225.987 63.8435V0.690674H214.915Z" fill="#2B2B2D" stroke="#2B2B2D"/>
</svg>
