<svg width="603" height="497" viewBox="0 0 603 497" fill="none" xmlns="http://www.w3.org/2000/svg">
<path d="M382.204 133.64C375.302 147.632 353.213 179.122 320.079 193.152" stroke="#131313" stroke-width="2.5"/>
<path d="M50.1445 204.162L554.232 211.704" stroke="#131313" stroke-width="2.5"/>
<path d="M52.0293 285.872L551.09 130.623" stroke="#131313" stroke-width="2.5" stroke-dasharray="12 12"/>
<path d="M53.4127 126.305L549.705 290.19" stroke="#131313" stroke-width="2.5" stroke-dasharray="12 12"/>
<path d="M52.6582 235.589L552.975 180.277" stroke="#131313" stroke-width="2.5"/>
<path d="M300.633 71.2495L305.967 443.981" stroke="#131313" stroke-width="2.5"/>
<path d="M253.994 444.589L331.521 72.6924" stroke="#131313" stroke-width="2.5"/>
<path d="M595.583 30.4774C578.267 36.2494 195.753 28.0724 6.6612 23.2625L1.25 487.726C7.74348 476.182 403.785 487.726 600.995 494.941L595.583 30.4774Z" stroke="#131313" stroke-width="2.5"/>
<circle cx="303.301" cy="207.933" r="15.7793" stroke="#131313" stroke-width="2"/>
<path d="M324.597 187.818L327.061 193.039L317.828 194.204L324.597 187.818Z" fill="#131313" stroke="#131313" stroke-width="1.12284"/>
</svg>
