<svg width="123" height="164" viewBox="0 0 123 164" fill="none" xmlns="http://www.w3.org/2000/svg">
<path d="M55.3459 41.4249L51.4723 39.9528L51.1146 37.3048L50.6985 30.7384V24.3597L49.4897 11.717L45.9846 5.7796L40.8262 2.17472L32.9564 0.761047L26.5414 1.8213L23.4331 3.94182L18.407 7.75875L13.9639 14.1099L11.1629 15.9392V18.8671L9.09891 29.0041L9.6886 37.966L8.06693 61.7588L7.03496 83.5032V98.7874L4.97102 110.763V118.439L0.78125 138.647L2.85978 143.716L11.9316 151.429L17.8073 153.743H30.0748L36.5689 155.506H42.2391L54.7128 158.04H69.7636L82.2606 161.58L95.2156 162.734L102.715 159.961L105.259 156.205L110.33 143.918L112.55 137.087L118.134 129.465L119.278 124.001L120.256 121.229V118.439V116.318L121.264 109.906L118.621 101.222V95.8417L116.143 81.3169L111.478 68.5486L109.885 63.5629L112.46 58.8702L113.595 57.0936L113.952 49.5276L115.502 46.5668L116.364 42.7154L116.868 30.2892L118.666 27.9061V22.7763L117.041 21.6436L116.868 18.8671L115.502 14.1099L114.291 11.9817L110.192 7.93387L106.014 5.80566L103.711 5.26317L101.993 6.38987L101.095 7.47484H99.2987L99.0644 9.47787L96.1752 12.4407L94.7696 14.4855L92.1037 15.9392V21.6436L91.5011 25.7839L89.2629 29.0041L87.7995 32.3163L86.7665 36.1806L85.3031 37.0086V39.9528L83.3232 44.0011H78.3303V46.1172L76.4365 46.5773L72.2184 45.5652L70.6689 43.6331H64.6431H61.0276L58.7034 42.161L55.3459 41.4249Z" stroke="black" stroke-width="1.5"/>
</svg>
